<?xml version="1.0" encoding="UTF-8" ?>
<!DOCTYPE svg PUBLIC "-//W3C//DTD SVG 1.1//EN" "http://www.w3.org/Graphics/SVG/1.1/DTD/svg11.dtd">
<svg width="128pt" height="128pt" viewBox="0 0 128 128" version="1.1" xmlns="http://www.w3.org/2000/svg">
<g id="#0000ccff">
<path fill="#0000cc" opacity="1.00" d=" M 12.51 15.50 C 14.84 15.50 17.17 15.50 19.51 15.51 C 19.49 17.31 19.48 19.11 19.45 20.92 C 20.80 20.96 22.16 21.00 23.51 21.04 C 23.50 23.00 23.49 24.97 23.47 26.93 C 24.10 26.96 25.37 27.00 26.00 27.02 C 26.00 25.02 26.00 23.01 26.00 21.00 C 27.33 21.00 28.67 21.00 30.00 21.00 C 30.00 19.17 30.00 17.34 30.00 15.51 C 32.33 15.50 34.67 15.50 37.00 15.51 C 37.00 22.00 37.00 28.50 37.00 35.00 C 35.33 35.00 33.67 35.00 32.00 35.00 C 32.00 37.92 32.00 40.83 32.00 43.74 C 36.01 47.74 40.02 51.74 44.01 55.76 C 43.99 60.17 44.00 64.58 44.00 69.00 C 47.73 69.00 51.47 69.02 55.20 68.97 C 58.75 72.32 62.00 75.98 65.67 79.20 C 69.07 75.51 72.72 72.07 76.24 68.49 C 79.47 68.49 82.70 68.49 85.93 68.55 C 86.05 64.45 85.99 60.35 86.00 56.26 C 90.19 52.09 94.39 47.92 98.54 43.70 C 98.50 40.81 98.50 37.91 98.51 35.02 C 96.67 35.01 94.84 35.00 93.00 34.99 C 93.00 28.50 93.00 22.00 93.00 15.51 C 95.33 15.50 97.67 15.50 100.00 15.51 C 100.00 17.34 100.00 19.17 100.00 21.00 C 101.50 21.00 103.00 21.00 104.50 21.00 C 104.49 22.99 104.49 24.97 104.48 26.95 C 105.11 26.97 106.37 27.00 107.00 27.02 C 107.00 25.02 107.00 23.03 107.00 21.04 C 108.18 21.00 109.37 20.95 110.56 20.90 C 110.53 19.10 110.50 17.30 110.49 15.51 C 112.82 15.50 115.16 15.50 117.50 15.51 C 117.50 22.00 117.50 28.50 117.49 35.00 C 115.66 35.00 113.83 35.00 112.00 35.00 C 112.00 39.58 112.00 44.16 112.00 48.74 C 108.14 52.58 104.27 56.41 100.46 60.30 C 100.50 63.37 100.50 66.43 100.49 69.50 C 98.67 69.49 96.85 69.49 95.03 69.48 C 95.00 72.82 95.00 76.17 94.97 79.51 C 90.15 79.49 85.32 79.49 80.50 79.50 C 80.50 85.33 80.49 91.17 80.50 97.00 C 85.33 97.00 90.17 97.00 95.00 97.00 C 95.00 99.00 95.00 101.00 95.00 103.00 C 87.67 103.00 80.33 103.00 73.00 103.00 C 72.99 97.25 73.01 91.51 72.99 85.77 C 70.18 88.00 68.14 91.69 64.86 93.00 C 62.09 90.60 59.69 87.81 57.01 85.31 C 56.99 91.21 57.01 97.10 57.00 103.00 C 53.33 103.00 49.67 103.00 46.00 103.00 C 46.00 100.50 46.00 97.99 45.99 95.49 C 45.13 95.50 43.39 95.51 42.53 95.51 C 42.50 93.17 42.50 90.84 42.49 88.50 C 41.50 88.50 39.50 88.50 38.50 88.50 C 38.50 93.32 38.48 98.14 38.52 102.96 C 36.68 102.98 34.84 103.00 33.00 103.01 C 32.98 91.83 33.03 80.66 32.97 69.48 C 32.23 69.48 30.75 69.49 30.00 69.50 C 29.99 66.60 29.99 63.70 30.03 60.80 C 26.06 56.74 22.02 52.75 18.00 48.74 C 18.00 44.16 18.00 39.58 18.00 35.00 C 16.17 35.00 14.34 35.00 12.51 35.00 C 12.50 28.50 12.50 22.00 12.51 15.50 M 38.51 79.00 C 38.50 79.87 38.50 81.62 38.50 82.50 C 41.16 82.50 43.83 82.50 46.50 82.50 C 46.50 81.63 46.50 79.87 46.50 79.00 C 43.84 79.00 41.17 79.00 38.51 79.00 Z" />
<path fill="#0000cc" opacity="1.00" d=" M 48.24 48.07 C 48.68 44.82 51.55 41.84 54.94 41.97 C 57.97 42.45 60.33 45.05 60.76 48.07 C 60.11 50.37 58.44 52.02 56.50 53.29 C 56.49 56.03 56.49 58.76 56.50 61.50 C 61.83 61.50 67.16 61.51 72.49 61.50 C 72.50 58.81 72.51 56.13 72.52 53.44 C 70.35 52.32 69.02 50.33 68.23 48.07 C 68.74 44.96 70.87 42.49 73.96 41.76 C 76.69 42.25 79.52 43.96 79.90 46.95 C 80.52 49.80 78.24 52.04 76.01 53.38 C 75.99 57.42 76.00 61.45 76.00 65.49 C 68.33 65.50 60.67 65.50 53.00 65.49 C 52.99 61.45 53.01 57.40 52.99 53.35 C 50.72 52.29 48.91 50.54 48.24 48.07 Z" />
<path fill="#0000cc" opacity="1.00" d=" M 3.48 82.81 C 7.23 79.02 11.02 75.27 14.78 71.50 C 20.18 71.51 25.59 71.50 31.00 71.51 C 31.00 73.00 31.00 74.50 31.00 76.00 C 26.70 75.99 22.40 76.03 18.10 75.97 C 14.46 79.06 11.07 82.46 7.97 86.10 C 8.03 90.23 7.99 94.36 8.00 98.49 C 6.50 98.49 5.00 98.50 3.51 98.49 C 3.49 93.27 3.52 88.04 3.48 82.81 Z" />
<path fill="#0000cc" opacity="1.00" d=" M 97.00 71.51 C 102.41 71.50 107.81 71.51 113.22 71.50 C 116.82 75.08 120.39 78.69 124.00 82.26 C 124.00 87.50 124.00 92.75 124.00 98.00 C 122.66 98.00 121.33 98.00 120.00 98.00 C 120.00 93.92 119.99 89.84 120.02 85.76 C 116.75 82.48 113.51 79.19 110.19 75.96 C 105.80 76.03 101.40 75.99 97.00 76.00 C 97.00 74.50 97.00 73.00 97.00 71.51 Z" />
<path fill="#0000cc" opacity="1.00" d=" M 9.97 87.81 C 12.87 84.82 15.82 81.89 18.79 78.97 C 22.86 79.02 26.93 78.99 31.00 79.00 C 31.00 80.50 30.99 82.00 30.98 83.51 C 28.25 83.50 25.52 83.50 22.78 83.49 C 20.04 86.20 17.36 88.98 14.56 91.62 C 14.46 95.42 14.50 99.21 14.50 103.00 C 13.00 103.00 11.50 103.00 10.00 103.00 C 9.99 97.93 10.03 92.87 9.97 87.81 Z" />
<path fill="#0000cc" opacity="1.00" d=" M 96.99 79.00 C 100.91 79.00 104.83 79.00 108.74 79.00 C 111.81 82.11 114.90 85.19 118.00 88.26 C 118.00 93.18 118.00 98.09 118.00 103.00 C 116.33 103.00 114.67 103.00 113.00 103.00 C 113.00 99.08 113.00 95.17 113.00 91.25 C 110.38 88.67 107.80 86.05 105.19 83.48 C 102.47 83.50 99.75 83.50 97.04 83.52 C 97.01 82.01 97.00 80.51 96.99 79.00 Z" />
<path fill="#0000cc" opacity="1.00" d=" M 16.49 93.26 C 18.58 91.13 20.68 89.01 22.83 86.96 C 25.55 87.01 28.28 87.00 31.00 87.00 C 31.00 88.50 31.00 90.00 31.00 91.50 C 29.10 91.50 27.20 91.48 25.31 91.46 C 23.66 93.05 22.05 94.66 20.46 96.30 C 20.52 100.03 20.50 103.76 20.49 107.50 C 19.49 107.50 17.50 107.49 16.50 107.49 C 16.50 102.74 16.51 98.00 16.49 93.26 Z" />
<path fill="#0000cc" opacity="1.00" d=" M 97.00 87.00 C 99.75 87.00 102.49 87.00 105.23 86.98 C 107.18 88.90 109.12 90.83 111.02 92.79 C 110.98 97.69 111.01 102.59 111.00 107.49 C 109.67 107.49 108.33 107.50 107.00 107.49 C 107.00 103.59 106.98 99.69 107.03 95.79 C 105.61 94.32 104.16 92.88 102.69 91.46 C 100.79 91.48 98.90 91.50 97.00 91.50 C 97.00 90.00 97.00 88.50 97.00 87.00 Z" />
<path fill="#0000cc" opacity="1.00" d=" M 26.26 94.00 C 27.84 94.00 29.42 94.00 31.00 94.00 C 31.00 95.37 31.00 96.75 30.99 98.12 C 29.91 98.71 28.91 99.42 27.93 100.16 C 28.06 104.27 27.98 108.38 28.00 112.50 C 26.50 112.50 25.00 112.49 23.50 112.49 C 23.50 107.25 23.51 102.02 23.50 96.78 C 24.42 95.85 25.34 94.92 26.26 94.00 Z" />
<path fill="#0000cc" opacity="1.00" d=" M 97.02 94.01 C 98.42 94.00 99.83 93.98 101.23 93.97 C 102.17 94.90 103.10 95.84 104.02 96.78 C 103.98 102.01 104.01 107.25 104.00 112.49 C 102.51 112.49 101.01 112.50 99.52 112.51 C 99.37 107.98 99.81 103.42 99.19 98.91 C 98.63 98.75 97.51 98.44 96.95 98.28 C 96.97 96.85 97.00 95.43 97.02 94.01 Z" />
</g>
</svg>
