<?xml version="1.0" encoding="iso-8859-1"?>
<!-- Generator: Adobe Illustrator 19.0.0, SVG Export Plug-In . SVG Version: 6.00 Build 0)  -->
<svg version="1.1" id="Layer_1" xmlns="http://www.w3.org/2000/svg" xmlns:xlink="http://www.w3.org/1999/xlink" x="0px" y="0px"
	 viewBox="0 0 503.467 503.467" style="enable-background:new 0 0 503.467 503.467;" xml:space="preserve">
<rect x="106.667" y="482.133" style="fill:#F2EDDA;" width="290.133" height="17.067"/>
<g transform="translate(5 1)">
	<path style="fill:#AAB1BA;" d="M33.4,139.8H59h145.067V88.6L33.4,139.8z M451.533,139.8h-25.6H280.867V88.6L451.533,139.8z
		 M451.533,242.2h-25.6H280.867V191L451.533,242.2z M33.4,242.2H59h145.067V191L33.4,242.2z"/>
	<path style="fill:#F2EDDA;" d="M204.067,191v-51.2V88.6l43.52-85.333L289.4,88.6V191l0,0v51.2l9.387,34.133l24.747,85.333
		l34.133,119.467H135.8L204.067,242.2V191L204.067,191z"/>
</g>
<path style="fill:#51565F;" d="M396.8,503.467c-2.56,0-4.267-1.707-4.267-4.267v-12.8h-29.867l0,0H140.8l0,0h-29.867v12.8
	c0,2.56-1.707,4.267-4.267,4.267s-4.267-1.707-4.267-4.267v-17.067c0-2.56,1.707-4.267,4.267-4.267h30.72l33.28-116.053l0,0
	l23.893-85.333l0,0l8.533-28.16H68.267v25.6H89.6c2.56,0,4.267,1.707,4.267,4.267s-1.707,4.267-4.267,4.267H38.4
	c-2.56,0-4.267-1.707-4.267-4.267s1.707-4.267,4.267-4.267h21.333v-25.6H38.4c-1.707,0-4.267-1.707-4.267-3.413
	c0-1.707,0.853-4.267,3.413-5.12l145.067-42.667c2.56-0.853,4.267,0.853,5.12,2.56c0.853,2.56-0.853,4.267-2.56,5.12L68.267,238.933
	H204.8v-93.867H68.267v25.6H89.6c2.56,0,4.267,1.707,4.267,4.267c0,2.56-1.707,4.267-4.267,4.267H38.4
	c-2.56,0-4.267-1.707-4.267-4.267c0-2.56,1.707-4.267,4.267-4.267h21.333v-25.6H38.4c-1.707,0-4.267-1.707-4.267-3.413
	c0-1.707,0.853-4.267,3.413-5.12l145.067-42.667c2.56-0.853,4.267,0.853,5.12,2.56c0.853,2.56-0.853,4.267-2.56,5.12L68.267,135.68
	H204.8V89.6v-0.853v-0.853L248.32,2.56c0.853-1.707,1.707-2.56,3.413-2.56c1.707,0,3.413,0.853,3.413,2.56l40.96,83.627
	l168.96,50.347c1.707,0.853,3.413,2.56,3.413,5.12c0,1.707-1.707,3.413-4.267,3.413H442.88v25.6h21.333
	c2.56,0,4.267,1.707,4.267,4.267c0,2.56-1.707,4.267-4.267,4.267h-51.2c-2.56,0-4.267-1.707-4.267-4.267
	c0-2.56,1.707-4.267,4.267-4.267h21.333v-25.6H320c-2.56,0-4.267-1.707-4.267-4.267c0-2.56,1.707-4.267,4.267-4.267h116.053
	l-137.387-40.96v93.867l167.253,50.347c1.707,0.853,3.413,2.56,3.413,5.12c0,1.707-1.707,3.413-4.267,3.413h-21.333v25.6h21.333
	c2.56,0,4.267,1.707,4.267,4.267c0,2.56-1.707,4.267-4.267,4.267h-51.2c-2.56,0-4.267-1.707-4.267-4.267
	c0-2.56,1.707-4.267,4.267-4.267H435.2v-25.6H320c-2.56,0-4.267-1.707-4.267-4.267c0-2.56,1.707-4.267,4.267-4.267h116.053
	l-137.387-40.96v45.227L332.8,362.666l0,0l33.28,116.053h30.72c2.56,0,4.267,1.707,4.267,4.267v17.067
	C401.067,501.76,399.36,503.467,396.8,503.467z M146.773,477.867H348.16l-96.427-61.44l-68.267,43.52
	c-1.707,0.853-4.267,0.853-5.973-1.707c-0.853-1.707-0.853-4.267,1.707-5.973l64.853-41.813l-66.56-41.813L146.773,477.867z
	 M180.053,360.96L355.84,472.747l-29.867-103.253L279.04,399.36c-1.707,0.853-4.267,0.853-5.973-1.707
	c-0.853-1.707-0.853-4.267,1.707-5.973l46.08-29.013l-69.12-45.227l-40.107,26.453c-1.707,1.707-4.267,0.853-5.973-0.853
	c-1.707-1.707-0.853-4.267,0.853-5.973l37.547-24.747l-41.813-28.16L180.053,360.96z M254.293,308.053l67.413,44.373L302.08,284.16
	l-21.333,14.507c-1.707,1.707-4.267,0.853-5.973-0.853c-1.707-1.707-0.853-4.267,0.853-5.973l23.893-16.213l-8.533-30.72v-0.853
	v-51.2l0,0V91.307l-37.547-76.8l-36.693,71.68h44.373c2.56,0,4.267,1.707,4.267,4.267c0,2.56-1.707,4.267-4.267,4.267h-46.933
	v42.667h55.467c2.56,0,4.267,1.707,4.267,4.267c0,2.56-1.707,4.267-4.267,4.267h-55.467v42.667h55.467
	c2.56,0,4.267,1.707,4.267,4.267s-1.707,4.267-4.267,4.267h-55.467v42.667h55.467c2.56,0,4.267,1.707,4.267,4.267
	c0,2.56-1.707,4.267-4.267,4.267h-56.32l-7.68,28.16L254.293,308.053L254.293,308.053z"/>
<g>
</g>
<g>
</g>
<g>
</g>
<g>
</g>
<g>
</g>
<g>
</g>
<g>
</g>
<g>
</g>
<g>
</g>
<g>
</g>
<g>
</g>
<g>
</g>
<g>
</g>
<g>
</g>
<g>
</g>
</svg>
