<?xml version="1.0" encoding="UTF-8" standalone="no"?>
<svg
   xmlns:dc="http://purl.org/dc/elements/1.1/"
   xmlns:cc="http://creativecommons.org/ns#"
   xmlns:rdf="http://www.w3.org/1999/02/22-rdf-syntax-ns#"
   xmlns:svg="http://www.w3.org/2000/svg"
   xmlns="http://www.w3.org/2000/svg"
   xmlns:sodipodi="http://sodipodi.sourceforge.net/DTD/sodipodi-0.dtd"
   xmlns:inkscape="http://www.inkscape.org/namespaces/inkscape"
   inkscape:version="1.0alpha (9dee831, 2019-01-15)"
   sodipodi:docname="i2c.svg"
   xml:space="preserve"
   style="enable-background:new 0 0 496.8 496.8;"
   viewBox="0 0 496.8 496.8"
   y="0px"
   x="0px"
   id="Layer_1"
   version="1.1"><metadata
   id="metadata89">
  <rdf:RDF>
    <cc:Work
       rdf:about="">
      <dc:format>image/svg+xml</dc:format>
      <dc:type
         rdf:resource="http://purl.org/dc/dcmitype/StillImage" />
    </cc:Work>
  </rdf:RDF>
</metadata>
<defs
   id="defs87" />
<sodipodi:namedview
   inkscape:current-layer="Layer_1"
   inkscape:window-maximized="0"
   inkscape:window-y="771"
   inkscape:window-x="1446"
   inkscape:cy="248.39999"
   inkscape:cx="261.77827"
   inkscape:zoom="1.9585347"
   inkscape:guide-bbox="true"
   showguides="true"
   showgrid="false"
   id="namedview85"
   inkscape:window-height="1347"
   inkscape:window-width="2005"
   inkscape:pageshadow="2"
   inkscape:pageopacity="0"
   guidetolerance="10"
   gridtolerance="10"
   objecttolerance="10"
   borderopacity="1"
   inkscape:document-rotation="0"
   bordercolor="#666666"
   pagecolor="#ffffff">
  <sodipodi:guide
     id="guide91"
     orientation="0,-1"
     position="606.06536,9.7011305" />
</sodipodi:namedview>

<path
   inkscape:connector-curvature="0"
   id="path2"
   d="m 68.319433,144.2304 c -6.399998,0.005 -12.004321,-5.59073 -12.009263,-11.99073 v 0 c -0.0049,-6.4 5.590732,-12.00432 11.99073,-12.00926 l 359.99989,-0.278 c 6.4,-0.005 12.00432,5.59073 12.00927,11.99073 v 0 c 0.005,6.4 -5.59074,12.00432 -11.99073,12.00926 z"
   style="fill:#eac113" />

<path
   inkscape:connector-curvature="0"
   id="path4"
   d="m 440.31006,131.94314 v 0 c 0.005,6.4 -4.79074,12.0037 -11.19073,12.00864 l -361.599897,0.27924 c -6.399998,0.005 -11.204321,-5.59135 -11.209263,-11.99135 v 0"
   style="fill:#e8a615" />

<path
   inkscape:connector-curvature="0"
   id="path6"
   d="m 68.257655,64.230422 c -6.399998,0.0049 -12.004321,-5.590732 -12.009263,-11.99073 v 0 c -0.0049,-6.399998 5.590731,-12.004321 11.990729,-12.009263 L 428.23901,39.952427 c 6.4,-0.0049 12.00432,5.590732 12.00927,11.99073 v 0 c 0.005,6.399998 -5.59073,12.004321 -11.99073,12.009263 z"
   style="fill:#eac113" />

<path
   inkscape:connector-curvature="0"
   id="path8"
   d="m 440.24828,51.943157 v 0 c 0.005,6.399998 -4.79073,12.003703 -11.19073,12.008645 L 67.457655,64.23104 C 61.057657,64.23594 56.253334,58.63969 56.248392,52.239692 v 0"
   style="fill:#e8a615" />

<path
   inkscape:connector-curvature="0"
   id="path10"
   d="m 68.381211,224.23038 c -6.399998,0.005 -12.004321,-5.59073 -12.009263,-11.99073 v 0 c -0.0049,-6.4 5.590732,-12.00432 11.99073,-12.00926 l 359.999892,-0.27801 c 6.4,-0.005 12.00432,5.59073 12.00926,11.99073 v 0 c 0.005,6.4 -5.59073,12.00432 -11.99073,12.00927 z"
   style="fill:#eac113" />

<path
   inkscape:connector-curvature="0"
   id="path12"
   d="m 440.37183,211.94311 v 0 c 0.005,6.4 -4.79073,12.00371 -11.19073,12.00865 L 67.581212,224.231 c -6.399999,0.005 -11.204322,-5.59135 -11.209264,-11.99135 v 0"
   style="fill:#e8a615" />

<path
   inkscape:connector-curvature="0"
   id="path14"
   d="m 68.44299,304.23035 c -6.399999,0.005 -12.004321,-5.59073 -12.009264,-11.99073 v 0 c -0.0049,-6.39999 5.590732,-12.00432 11.99073,-12.00926 l 359.999894,-0.278 c 6.4,-0.005 12.00432,5.59073 12.00926,11.99073 v 0 c 0.005,6.4 -5.59073,12.00432 -11.99073,12.00926 z"
   style="fill:#eac113" />

<path
   inkscape:connector-curvature="0"
   id="path16"
   d="m 440.43361,291.94309 v 0 c 0.005,6.4 -4.79073,12.0037 -11.19073,12.00864 l -361.59989,0.27924 c -6.399998,0.005 -11.204321,-5.59135 -11.209264,-11.99135 v 0"
   style="fill:#e8a615" />

<path
   inkscape:connector-curvature="0"
   id="path18"
   d="m 68.504768,384.23033 c -6.399998,0.005 -12.004321,-5.59073 -12.009263,-11.99073 v 0 c -0.0049,-6.4 5.590731,-12.00432 11.990729,-12.00926 l 359.999896,-0.278 c 6.4,-0.005 12.00432,5.59073 12.00926,11.99073 v 0 c 0.005,6.39999 -5.59073,12.00432 -11.99073,12.00926 z"
   style="fill:#eac113" />

<path
   inkscape:connector-curvature="0"
   id="path20"
   d="m 440.49539,371.94307 v 0 c 0.005,6.39999 -4.79073,12.0037 -11.19073,12.00864 l -361.599892,0.27924 c -6.399998,0.005 -11.204321,-5.59135 -11.209263,-11.99135 v 0"
   style="fill:#e8a615" />

<path
   inkscape:connector-curvature="0"
   id="path22"
   d="m 68.566546,464.23031 c -6.399998,0.005 -12.004321,-5.59073 -12.009263,-11.99073 v 0 c -0.0049,-6.4 5.590731,-12.00432 11.99073,-12.00927 l 359.999897,-0.278 c 6.39999,-0.005 12.00432,5.59073 12.00926,11.99073 v 0 c 0.005,6.4 -5.59073,12.00432 -11.99073,12.00926 z"
   style="fill:#eac113" />

<path
   inkscape:connector-curvature="0"
   id="path24"
   d="m 440.55717,451.94304 v 0 c 0.005,6.4 -4.79073,12.0037 -11.19073,12.00865 l -361.599894,0.27923 c -6.399998,0.005 -11.204321,-5.59134 -11.209263,-11.99134 v 0"
   style="fill:#e8a615" />

<path
   inkscape:connector-curvature="0"
   id="path26"
   d="m 130.19124,496.18273 c -13.6,0.0105 -25.60864,-11.18023 -25.61976,-25.58023 L 104.22799,25.802633 C 104.21689,11.402638 115.40822,0.19399196 129.80821,0.18287187 L 366.60814,8.2797309e-6 C 381.00814,-0.01111182 392.21678,11.180236 392.2279,25.580232 l 0.34411,445.599868 c 0.0105,13.6 -11.18023,25.60864 -25.58022,25.61976 l -236.79993,0.18287 z"
   style="fill:#62c106" />

<path
   inkscape:connector-curvature="0"
   id="path28"
   d="M 365.80814,6.2605973e-4 C 379.40814,-0.00987624 392.21678,11.180236 392.2279,25.580232 l 0.34411,445.599868 c 0.0105,13.6 -13.58023,25.6105 -27.98022,25.62162 l -235.19993,0.18163 c -13.6,0.0105 -25.60864,-11.18023 -25.61976,-25.58023"
   style="fill:#56b502" />

<path
   inkscape:connector-curvature="0"
   id="path30"
   d="m 161.36652,464.15864 c -10.4,0.008 -16.80803,-10.38702 -16.81606,-20.78702 L 144.24898,52.971736 c -0.008,-10.399997 5.58394,-20.804318 16.78394,-20.812967 l 174.39994,-0.134677 c 11.2,-0.0086 16.80803,10.387024 16.81606,20.787021 L 352.5504,443.211 c 0.008,10.4 -5.58394,20.80432 -16.78393,20.81297 z"
   style="fill:#51a500" />

<path
   inkscape:connector-curvature="0"
   id="path32"
   d="m 335.43286,32.024092 c 11.2,-0.0086 16.80803,10.387024 16.81606,20.787021 L 352.5504,443.211 c 0.008,10.4 -5.58394,20.80432 -16.78393,20.81297 l -175.19995,0.13529 c -10.4,0.008 -16.80803,-10.38702 -16.81606,-20.78702"
   style="fill:#4c9300" />

<g
   transform="rotate(89.955755,248.35428,248.44568)"
   id="g40">
	<polygon
   id="polygon34"
   points="112,312.4 160,312.4 160,256.4 232,256.4 232,264.4 168,264.4 168,320.4 104,320.4 104,176.4 72,176.4 72,168.4 112,168.4 "
   style="fill:#62c106" />

	<circle
   id="circle36"
   r="11.2"
   cy="174.8"
   cx="67.199997"
   style="fill:#62c106" />

	<path
   inkscape:connector-curvature="0"
   id="path38"
   d="m 244.8,264.4 c 0,6.4 -4.8,11.2 -11.2,11.2 -6.4,0 -11.2,-4.8 -11.2,-11.2 0,-6.4 4.8,-11.2 11.2,-11.2 6.4,0 11.2,4.8 11.2,11.2 z"
   style="fill:#62c106" />

</g>

<polygon
   transform="rotate(89.955755,248.35428,248.44568)"
   id="polygon42"
   points="424,168.4 384,168.4 384,224.4 312,224.4 312,216.4 376,216.4 376,160.4 432,160.4 432,304.4 472,304.4 472,312.4 424,312.4 "
   style="fill:#56b502" />

<g
   transform="rotate(89.955755,248.35428,248.44568)"
   id="g52">
	<circle
   id="circle44"
   r="11.2"
   cy="223.60001"
   cx="307.20001"
   style="fill:#62c106" />

	<polygon
   id="polygon46"
   points="272,168.4 232,168.4 232,224.4 152,224.4 152,216.4 224,216.4 224,160.4 280,160.4 280,304.4 312,304.4 312,312.4 272,312.4 "
   style="fill:#62c106" />

	<circle
   id="circle48"
   r="11.2"
   cy="312.39999"
   cx="320.79999"
   style="fill:#62c106" />

	<circle
   id="circle50"
   r="11.2"
   cy="223.60001"
   cx="154.39999"
   style="fill:#62c106" />

</g>

<g
   id="g54">
</g>

<g
   id="g56">
</g>

<g
   id="g58">
</g>

<g
   id="g60">
</g>

<g
   id="g62">
</g>

<g
   id="g64">
</g>

<g
   id="g66">
</g>

<g
   id="g68">
</g>

<g
   id="g70">
</g>

<g
   id="g72">
</g>

<g
   id="g74">
</g>

<g
   id="g76">
</g>

<g
   id="g78">
</g>

<g
   id="g80">
</g>

<g
   id="g82">
</g>

</svg>
