<?xml version="1.0" encoding="iso-8859-1"?>
<!-- Generator: Adobe Illustrator 19.0.0, SVG Export Plug-In . SVG Version: 6.00 Build 0)  -->
<svg version="1.1" id="Layer_1" xmlns="http://www.w3.org/2000/svg" xmlns:xlink="http://www.w3.org/1999/xlink" x="0px" y="0px"
	 viewBox="0 0 512 512" style="enable-background:new 0 0 512 512;" xml:space="preserve">
<path style="fill:#F7D04A;" d="M487.95,0H24.05C10.788,0,0,10.789,0,24.05v463.9C0,501.211,10.788,512,24.05,512h463.9
	c13.261,0,24.05-10.789,24.05-24.05V24.05C512,10.789,501.211,0,487.95,0z"/>
<path style="fill:#F3B41B;" d="M24.05,0C10.788,0,0,10.789,0,24.05v463.9C0,501.211,10.788,512,24.05,512h363.446L119.559,0H24.05z"
	/>
<path style="fill:#EB6836;" d="M256,59.858C147.847,59.858,59.858,147.846,59.858,256S147.847,452.142,256,452.142
	c108.154,0,196.142-87.988,196.142-196.142S364.154,59.858,256,59.858z"/>
<path style="fill:#C74B38;" d="M256,74.288C155.804,74.288,74.288,155.803,74.288,256S155.804,437.712,256,437.712
	c100.197,0,181.712-81.515,181.712-181.712S356.197,74.288,256,74.288z"/>
<path style="fill:#F2F2F2;" d="M359.943,152.133c-27.777-27.799-64.692-43.107-103.946-43.106
	C174.959,109.028,109.027,174.961,109.027,256c0,7.187,0.524,14.41,1.558,21.469c2.072,14.151,11.294,25.774,24.669,31.093
	c4.902,1.95,9.978,2.907,15.003,2.907c8.803,0,17.441-2.943,24.664-8.647c23.291-18.393,51.328-28.116,81.079-28.116
	c29.746,0,57.78,9.719,81.07,28.109c11.339,8.954,26.131,11.09,39.568,5.714c13.517-5.409,22.812-17.24,24.862-31.652
	c0.972-6.826,1.468-13.812,1.473-20.765C403.002,216.857,387.72,179.931,359.943,152.133z"/>
<path style="fill:#E5E5E5;" d="M161.442,308.562c-13.375-5.319-22.597-16.942-24.669-31.093c-1.034-7.059-1.558-14.281-1.558-21.469
	c0-76.641,58.971-139.758,133.918-146.386c-4.343-0.383-8.723-0.587-13.136-0.587C174.959,109.028,109.027,174.961,109.027,256
	c0,7.187,0.524,14.41,1.558,21.469c2.072,14.151,11.294,25.774,24.669,31.093c4.902,1.95,9.978,2.907,15.003,2.907
	c4.439,0,8.834-0.75,13.029-2.223C162.669,309.033,162.054,308.805,161.442,308.562z"/>
<path style="fill:#666666;" d="M372.834,226.815c-3.132-3.13-8.207-3.13-11.338,0l-12.338,12.338
	c-22.299-23.774-52.664-38.053-85.141-40.08v-9.344c0-4.428-3.588-8.017-8.017-8.017c-4.427,0-8.017,3.588-8.017,8.017v9.344
	c-32.477,2.027-62.843,16.306-85.142,40.08l-12.338-12.338c-3.131-3.13-8.207-3.13-11.337,0c-3.131,3.132-3.131,8.207,0,11.338
	l25.653,25.653c1.565,1.565,3.617,2.347,5.668,2.347s4.103-0.782,5.668-2.347c3.131-3.132,3.131-8.207,0-11.338l-1.967-1.967
	c19.303-20.768,45.604-33.344,73.793-35.359v8.79c0,4.428,3.589,8.017,8.017,8.017c4.428,0,8.017-3.588,8.017-8.017v-8.79
	c28.189,2.014,54.489,14.591,73.793,35.358l-1.968,1.968c-3.131,3.132-3.131,8.207,0,11.338c1.566,1.565,3.618,2.347,5.669,2.347
	s4.103-0.782,5.669-2.347l25.653-25.653C375.964,235.022,375.964,229.947,372.834,226.815z"/>
<path style="fill:#C74B38;" d="M338.231,175.137c-3.336-2.911-8.401-2.564-11.311,0.771l-87.038,99.774
	c5.304-0.643,10.681-0.976,16.118-0.976c1.973,0,3.937,0.049,5.894,0.135l77.108-88.392
	C341.912,183.111,341.567,178.047,338.231,175.137z"/>
<path style="fill:#E5E5E5;" d="M435.574,36.342c-23.281,0-42.221,18.941-42.221,42.221s18.941,42.221,42.221,42.221
	c23.28,0,42.221-18.941,42.221-42.221S458.855,36.342,435.574,36.342z"/>
<path style="fill:#B2B2B2;" d="M470.545,102.196l-58.603-58.603c-4.461,3.024-8.314,6.877-11.338,11.338l58.603,58.603
	C463.667,110.51,467.52,106.656,470.545,102.196z"/>
<path style="fill:#E5E5E5;" d="M435.574,403.507c-23.281,0-42.221,18.941-42.221,42.221c0,23.281,18.941,42.221,42.221,42.221
	c23.28,0,42.221-18.941,42.221-42.221C477.795,422.448,458.855,403.507,435.574,403.507z"/>
<path style="fill:#B2B2B2;" d="M470.545,469.361l-58.603-58.603c-4.461,3.024-8.314,6.877-11.338,11.338l58.603,58.603
	C463.667,477.675,467.52,473.821,470.545,469.361z"/>
<path style="fill:#E5E5E5;" d="M33.67,78.564c0,23.281,18.941,42.221,42.221,42.221s42.221-18.941,42.221-42.221
	S99.172,36.342,75.891,36.342S33.67,55.283,33.67,78.564z"/>
<path style="fill:#B2B2B2;" d="M99.524,43.593L40.92,102.196c3.024,4.46,6.877,8.314,11.338,11.338l58.603-58.603
	C107.837,50.471,103.984,46.618,99.524,43.593z"/>
<path style="fill:#E5E5E5;" d="M33.67,445.729c0,23.281,18.941,42.221,42.221,42.221s42.221-18.941,42.221-42.221
	c0-23.28-18.941-42.221-42.221-42.221S33.67,422.448,33.67,445.729z"/>
<path style="fill:#B2B2B2;" d="M99.524,410.758L40.92,469.361c3.024,4.461,6.877,8.314,11.338,11.338l58.603-58.603
	C107.837,417.636,103.984,413.783,99.524,410.758z"/>
<path style="fill:#E5E5E5;" d="M214.313,360.217c0,23.28,18.941,42.221,42.221,42.221s42.221-18.941,42.221-42.221
	c0-23.281-18.941-42.221-42.221-42.221S214.313,336.937,214.313,360.217z"/>
<path style="fill:#B2B2B2;" d="M280.167,325.246l-58.603,58.603c3.024,4.46,6.877,8.314,11.338,11.338l58.603-58.603
	C288.48,332.124,284.627,328.271,280.167,325.246z"/>
<g>
</g>
<g>
</g>
<g>
</g>
<g>
</g>
<g>
</g>
<g>
</g>
<g>
</g>
<g>
</g>
<g>
</g>
<g>
</g>
<g>
</g>
<g>
</g>
<g>
</g>
<g>
</g>
<g>
</g>
</svg>
