<?xml version="1.0" encoding="utf-8"?>
<!-- Generator: Adobe Illustrator 16.0.0, SVG Export Plug-In . SVG Version: 6.00 Build 0)  -->
<!DOCTYPE svg PUBLIC "-//W3C//DTD SVG 1.1//EN" "http://www.w3.org/Graphics/SVG/1.1/DTD/svg11.dtd">
<svg xmlns="http://www.w3.org/2000/svg" xmlns:xlink="http://www.w3.org/1999/xlink" version="1.1" id="Layer_1" x="0px" y="0px" width="512" height="512" viewBox="0 0 512 512" enable-background="new 0 0 512 512" xml:space="preserve">
<g id="usb">
	<polygon fill="#434A54" points="224,330.719 224,512 245.328,512 266.672,512 288,512 288,330.719  "/>
	<g>
		<rect x="181.328" fill="#E6E9ED" width="149.344" height="170.664"/>
	</g>
	<g>
		<path fill="#37BC9B" d="M298.672,384c0,11.781-9.562,21.344-21.344,21.344h-42.656c-11.781,0-21.344-9.562-21.344-21.344v-74.656    c0-11.781,9.562-21.344,21.344-21.344h42.656c11.781,0,21.344,9.562,21.344,21.344V384z"/>
	</g>
	<g>
		<path fill="#48CFAD" d="M362.672,320.062c0,11.781-9.562,21.312-21.344,21.312H170.672c-11.781,0-21.344-9.531-21.344-21.312    V106.664h213.344V320.062z"/>
	</g>
	<g>
		<path fill="#CCD1D9" d="M234.672,42.664h-21.344c-5.891,0-10.656,4.781-10.656,10.672S207.438,64,213.328,64h21.344    c5.891,0,10.656-4.773,10.656-10.664S240.562,42.664,234.672,42.664z"/>
		<path fill="#CCD1D9" d="M298.672,42.664h-21.344c-5.891,0-10.656,4.781-10.656,10.672S271.438,64,277.328,64h21.344    c5.891,0,10.656-4.773,10.656-10.664S304.562,42.664,298.672,42.664z"/>
	</g>
	<g>
		<path fill="#E6E9ED" d="M298.703,256.375l-0.031-37.719l0,0C298.656,212.773,293.891,208,288,208s-10.672,4.773-10.672,10.664    v0.008l0,0l0.031,26.289l-18.781,12.508l3.344-5.016l-27.281-18.164l0.031-26.281l0,0V208c0-5.891-4.781-10.664-10.672-10.664    s-10.656,4.766-10.672,10.656l0,0l-0.016,37.719l36.781,24.5l2.359-3.547l9.469,14.211L298.703,256.375z"/>
		<path fill="#F5F7FA" d="M274.203,168.461l-10.656-10.672c-1.938-1.93-4.594-3.125-7.547-3.125s-5.609,1.195-7.547,3.125    l-10.656,10.672c-1.938,1.93-3.125,4.594-3.125,7.539c0,5.891,4.766,10.664,10.656,10.664v106.68    c0,5.875,4.781,10.656,10.672,10.656s10.672-4.781,10.672-10.656v-106.68c5.891,0,10.656-4.773,10.656-10.664    C277.328,173.055,276.141,170.391,274.203,168.461z"/>
	</g>
	<path opacity="0.1" d="M224,362.656c0-5.875-4.781-10.656-10.672-10.656v21.344C219.219,373.344,224,368.562,224,362.656z"/>
	<path opacity="0.1" d="M288,362.656c0,5.906,4.781,10.688,10.672,10.688V352C292.781,352,288,356.781,288,362.656z"/>
</g>
</svg>
