<?xml version="1.0" encoding="iso-8859-1"?>
<!-- Generator: Adobe Illustrator 19.0.0, SVG Export Plug-In . SVG Version: 6.00 Build 0)  -->
<svg version="1.1" id="Layer_1" xmlns="http://www.w3.org/2000/svg" xmlns:xlink="http://www.w3.org/1999/xlink" x="0px" y="0px"
	 viewBox="0 0 495.23 495.23" style="enable-background:new 0 0 495.23 495.23;" xml:space="preserve">
<path style="fill:#05AF8F;" d="M424.846,447.583c0,25.758-20.874,47.648-46.647,47.648H117.016
	c-25.758,0-46.631-21.89-46.631-47.648V267.24c0-25.758,20.874-47.703,46.631-47.703h261.175c25.781,0,46.655,21.945,46.655,47.703
	V447.583z"/>
<path style="fill:#049B93;" d="M424.846,266.799v180.783c0,25.758-20.874,47.648-46.647,47.648H117.646"/>
<g>
	<path style="fill:#0CC4A1;" d="M70.384,266.713c0-25.765,20.874-47.175,46.631-47.175h261.175c25.781,0,46.655,21.15,46.655,46.907
		"/>
	<path style="fill:#0CC4A1;" d="M287.984,328.373c0-22.819-18.03-41.299-40.826-41.299c-22.804,0-40.133,18.479-40.133,41.299
		c0,14.872,5.144,27.813,20.897,35.084v59.557c0,11.894,7.806,21.52,19.692,21.52c11.886,0,19.692-9.633,19.692-21.52v-59.557
		C283.061,356.187,287.984,343.253,287.984,328.373z"/>
</g>
<path style="fill:#0F343A;" d="M287.984,319.976c0-22.812-18.03-41.299-40.826-41.299c-22.804,0-40.133,18.487-40.133,41.299
	c0,14.879,5.144,27.821,20.897,35.084v59.557c0,11.894,7.806,21.52,19.692,21.52c11.886,0,19.692-9.633,19.692-21.52V355.06
	C283.061,347.798,287.984,334.856,287.984,319.976z"/>
<path style="fill:#0CC4A1;" d="M149.5,105.842c0,0.378-0.315,0.701-0.693,0.701h-1.394c-0.394,0-0.701-0.323-0.701-0.701l0,0
	c0-0.394,0.307-0.701,0.701-0.701h1.394C149.185,105.141,149.5,105.448,149.5,105.842L149.5,105.842z"/>
<path style="fill:#6F8782;" d="M377.584,195.907H338.2v-62.401c0-50.467-40.109-91.522-90.577-91.522
	c-50.467,0-90.592,41.055-90.592,91.522v62.401h-39.385v-62.401C117.646,59.888,173.997,0,247.623,0
	c73.61,0,129.961,59.888,129.961,133.506V195.907z"/>
<g>
	<path style="fill:#4E605C;" d="M117.646,175.498v20.409h39.385v-20.409v-41.992c0-50.467,42.362-91.522,92.837-91.522
		C176.242,41.984,117.646,101.88,117.646,175.498z"/>
	<path style="fill:#4E605C;" d="M245.386,41.984c50.46,0,92.814,41.055,92.814,91.522v41.992v20.409h39.385v-20.409
		C377.584,101.88,318.996,41.984,245.386,41.984z"/>
</g>

</svg>
