<?xml version="1.0" encoding="iso-8859-1"?>
<!-- Generator: Adobe Illustrator 19.0.0, SVG Export Plug-In . SVG Version: 6.00 Build 0)  -->
<svg version="1.1" id="Layer_1" xmlns="http://www.w3.org/2000/svg" xmlns:xlink="http://www.w3.org/1999/xlink" x="0px" y="0px"
	 viewBox="0 0 512.001 512.001" style="enable-background:new 0 0 512.001 512.001;" xml:space="preserve">
<path style="fill:#AEADB3;" d="M62.336,204.361c-20.375-40.298-24.819-85.483-12.851-130.672
	c8.979-33.905,24.07-56.018,24.708-56.943L85.748,0l79.735,92.81L62.336,204.361z"/>
<path style="fill:#D37B93;" d="M141.684,113.258L90.04,53.146c-3.587,7.881-7.488,17.961-10.502,29.637
	c-7.917,30.667-7.021,60.241,2.636,88.184L141.684,113.258z"/>
<path style="fill:#818186;" d="M449.665,204.361c20.375-40.298,24.819-85.483,12.851-130.671
	c-8.979-33.905-24.07-56.017-24.708-56.943L426.253,0l-79.735,92.81L449.665,204.361"/>
<path style="fill:#9D5B6E;" d="M370.318,113.258l51.643-60.11c3.587,7.881,7.488,17.961,10.502,29.637
	c7.917,30.667,7.021,60.241-2.636,88.184L370.318,113.258"/>
<path style="fill:#D8D9DD;" d="M256.001,512c-45.417,0-80.561-14.658-107.438-44.815c-24.94-27.981-39.663-65.8-51.858-102.499
	c-4.758-14.319-9.345-26.547-13.782-38.373c-13.167-35.099-23.567-62.823-23.567-107.819c0-30.689,6.978-57.096,20.741-78.489
	c12.104-18.814,29.528-33.878,51.786-44.774c41.09-20.116,90.514-22.442,124.117-22.442s83.027,2.326,124.116,22.442
	c22.259,10.896,39.681,25.96,51.786,44.774c13.763,21.392,20.741,47.8,20.741,78.489c0,44.996-10.4,72.719-23.567,107.819
	c-4.437,11.826-9.023,24.054-13.782,38.373c-12.195,36.7-26.918,74.518-51.857,102.499C336.561,497.342,301.418,512,256.001,512"/>
<g>
	<path style="fill:#333333;" d="M184.887,225.811c0-11.273,9.024-20.402,20.112-20.402c11.102,0,20.124,9.13,20.124,20.402
		c0,11.272-9.022,20.409-20.124,20.409C193.91,246.22,184.887,237.083,184.887,225.811z"/>
	<path style="fill:#333333;" d="M327.116,225.811c0-11.356-9.082-20.561-20.263-20.561c-11.195,0-20.277,9.205-20.277,20.561
		c0,11.355,9.082,20.561,20.277,20.561C318.034,246.372,327.116,237.166,327.116,225.811"/>
</g>
<g>
	<path style="fill:#444242;" d="M240.312,511.376c5.089,0.412,10.315,0.624,15.689,0.624c5.374,0,10.599-0.212,15.689-0.624V403.575
		h-31.377L240.312,511.376"/>
	<path style="fill:#444242;" d="M256.001,415.799c-19.589,0-37.144-15.455-43.783-22.101c-6.662-6.669-22.157-24.326-22.157-44.22
		c0-16.438,7.848-28.435,22.697-34.691c9.836-4.145,22.365-5.835,43.243-5.835s33.407,1.69,43.243,5.835
		c14.849,6.257,22.697,18.253,22.697,34.691c0,19.894-15.495,37.551-22.156,44.22C293.145,400.344,275.589,415.799,256.001,415.799"
		/>
</g>
<path style="fill:#BDBDBF;" d="M452.645,218.335c0,0.052,0,0.108,0,0.16l0,0C452.645,218.442,452.645,218.388,452.645,218.335
	 M452.645,218.189c0,0.017,0,0.028,0,0.046C452.645,218.219,452.645,218.203,452.645,218.189 M462.949,75.35v0.001V75.35
	 M462.915,75.219c0.001,0.003,0.001,0.003,0.001,0.006L462.915,75.219 M462.882,75.09c0.001,0.003,0.001,0.004,0.002,0.007
	C462.883,75.095,462.883,75.093,462.882,75.09 M462.847,74.957c0.001,0.005,0.002,0.009,0.004,0.016
	C462.85,74.967,462.849,74.962,462.847,74.957 M462.815,74.828c0.001,0.005,0.002,0.01,0.004,0.016
	C462.817,74.838,462.816,74.834,462.815,74.828 M462.779,74.693c0.002,0.008,0.004,0.017,0.006,0.025
	C462.784,74.71,462.781,74.701,462.779,74.693 M462.745,74.558c0.003,0.012,0.005,0.022,0.008,0.033
	C462.75,74.581,462.747,74.569,462.745,74.558 M462.711,74.429c0.003,0.012,0.005,0.022,0.008,0.032
	C462.717,74.451,462.714,74.44,462.711,74.429 M462.678,74.302c0.003,0.012,0.005,0.02,0.008,0.031
	C462.683,74.323,462.681,74.313,462.678,74.302 M462.642,74.167c0.003,0.012,0.007,0.027,0.01,0.038
	C462.649,74.192,462.646,74.181,462.642,74.167 M462.607,74.031c0.004,0.017,0.007,0.029,0.012,0.045
	C462.615,74.063,462.61,74.045,462.607,74.031 M462.568,73.885c0.005,0.019,0.011,0.044,0.017,0.064
	C462.58,73.927,462.573,73.907,462.568,73.885 M256.46,72.791c0.006,0,0.006,0,0.013,0C256.467,72.791,256.465,72.791,256.46,72.791
	 M256.001,72.791L256.001,72.791c0.126,0,0.251,0,0.377,0C256.253,72.791,256.125,72.791,256.001,72.791 M426.253,0l-72.843,84.787
	l0,0L426.253,0l11.554,16.747c0.638,0.925,15.729,23.038,24.708,56.943c0.012,0.044,0.022,0.085,0.035,0.129
	c-0.011-0.043-0.023-0.087-0.035-0.129c-8.979-33.905-24.07-56.017-24.708-56.943L426.253,0"/>
<path style="fill:#A0A1A5;" d="M306.852,246.372c-11.195,0-20.277-9.205-20.277-20.561s9.082-20.561,20.277-20.561
	c11.182,0,20.263,9.205,20.263,20.561C327.116,237.166,318.034,246.372,306.852,246.372 M256.001,72.791v236.162
	c20.878,0,33.407,1.69,43.243,5.835c14.849,6.257,22.697,18.253,22.697,34.692c0,19.894-15.495,37.551-22.156,44.22
	c-4.791,4.797-15.27,14.181-28.095,19.033v98.644c-5.05,0.409-10.232,0.621-15.561,0.624c45.357-0.027,80.458-14.687,107.311-44.815
	c24.94-27.981,39.662-65.8,51.857-102.499c4.758-14.319,9.345-26.547,13.782-38.373c13.167-35.099,23.567-62.823,23.567-107.819
	c0-0.052,0-0.108,0-0.16c0-0.033,0-0.067,0-0.101c0-0.017,0-0.028,0-0.046c-0.01-6.207-0.321-12.23-0.902-18.08
	c0.004-0.009,0.01-0.022,0.015-0.031c-1.982-19.966-7.277-37.818-15.821-53.309c-1.273-2.307-2.616-4.56-4.033-6.762
	c-11.376-17.683-27.453-32.054-47.826-42.765c-1.303-0.685-2.622-1.354-3.96-2.009c-8.61-4.215-17.587-7.65-26.707-10.444l0,0
	l-0.006,0.007c-34.197-10.48-70.413-11.987-96.931-12.005c-0.006,0-0.006,0-0.013,0c-0.027,0-0.054,0-0.083,0
	C256.253,72.791,256.126,72.791,256.001,72.791"/>
<path style="fill:#323132;" d="M299.243,314.787c-9.836-4.145-22.365-5.835-43.243-5.835v106.847V512c0.042,0,0.086,0,0.128,0
	c5.329-0.003,10.511-0.215,15.561-0.624v-98.644c12.825-4.852,23.304-14.238,28.095-19.033c6.662-6.669,22.156-24.326,22.156-44.22
	C321.94,333.04,314.093,321.045,299.243,314.787z"/>
<g>
</g>
<g>
</g>
<g>
</g>
<g>
</g>
<g>
</g>
<g>
</g>
<g>
</g>
<g>
</g>
<g>
</g>
<g>
</g>
<g>
</g>
<g>
</g>
<g>
</g>
<g>
</g>
<g>
</g>
</svg>
