<?xml version="1.0" encoding="iso-8859-1"?>
<!-- Generator: Adobe Illustrator 19.0.0, SVG Export Plug-In . SVG Version: 6.00 Build 0)  -->
<svg version="1.1" id="Layer_1" xmlns="http://www.w3.org/2000/svg" xmlns:xlink="http://www.w3.org/1999/xlink" x="0px" y="0px"
	 viewBox="0 0 495 495" style="enable-background:new 0 0 495 495;" xml:space="preserve">
<g>
	<polygon style="fill:#0CC4A1;" points="247.5,0 163.07,0 163.07,115.57 97.742,115.57 247.5,279.669 	"/>
	<polygon style="fill:#049B93;" points="397.259,115.57 331.93,115.57 331.93,0 247.5,0 247.5,279.669 	"/>
	<rect y="310" style="fill:#6F8782;" width="247.5" height="185"/>
	<path style="fill:#4E605C;" d="M247.5,310v185H495V310H247.5z M335,422.5c-11.046,0-20-8.954-20-20s8.954-20,20-20s20,8.954,20,20
		S346.046,422.5,335,422.5z M405,422.5c-11.046,0-20-8.954-20-20s8.954-20,20-20s20,8.954,20,20S416.046,422.5,405,422.5z"/>
	<circle style="fill:#0F343A;" cx="335" cy="402.5" r="20"/>
	<circle style="fill:#0F343A;" cx="405" cy="402.5" r="20"/>
</g>

</svg>
