<?xml version="1.0" encoding="UTF-8" standalone="no"?>
<svg
   fill="#000000"
   viewBox="0 0 100 100"
   version="1.1"
   preserveAspectRatio="xMidYMid meet"
   id="svg13"
   sodipodi:docname="export.svg"
   width="100"
   height="100"
   inkscape:version="1.1 (c4e8f9e, 2021-05-24)"
   xmlns:inkscape="http://www.inkscape.org/namespaces/inkscape"
   xmlns:sodipodi="http://sodipodi.sourceforge.net/DTD/sodipodi-0.dtd"
   xmlns="http://www.w3.org/2000/svg"
   xmlns:svg="http://www.w3.org/2000/svg">
  <defs
     id="defs17" />
  <sodipodi:namedview
     id="namedview15"
     pagecolor="#ffffff"
     bordercolor="#999999"
     borderopacity="1"
     inkscape:pageshadow="0"
     inkscape:pageopacity="0"
     inkscape:pagecheckerboard="0"
     showgrid="false"
     inkscape:zoom="2"
     inkscape:cx="-93.75"
     inkscape:cy="224.75"
     inkscape:current-layer="svg13" />
  <g
     id="SVGRepo_bgCarrier"
     stroke-width="0" />
  <g
     id="SVGRepo_tracerCarrier"
     stroke-linecap="round"
     stroke-linejoin="round" />
  <g
     id="SVGRepo_iconCarrier"
     transform="scale(2.7777778)">
    <title
       id="title4">export-solid</title>
    <path
       d="m 17,22 a 1,1 0 0 1 1,-1 h 8 V 6 A 2,2 0 0 0 24,4 H 10.87 L 4,10.86 V 30 a 2,2 0 0 0 2,2 h 18 a 2,2 0 0 0 2,-2 V 23 H 18 A 1,1 0 0 1 17,22 Z M 12,12 H 6 V 11.68 L 11.69,6 H 12 Z"
       class="clr-i-solid clr-i-solid-path-1"
       fill="#4a4a4a"
       id="path6" />
    <path
       d="m 29.32,16.35 a 1,1 0 0 0 -1.41,1.41 L 31.16,21 H 26 v 2 h 5.19 l -3.28,3.28 a 1,1 0 1 0 1.41,1.41 L 35,22 Z"
       class="clr-i-solid clr-i-solid-path-2"
       fill="#4a4a4a"
       id="path8" />
    <rect
       x="0"
       y="0"
       width="36"
       height="36"
       fill-opacity="0"
       id="rect10" />
  </g>
</svg>
