<?xml version="1.0" encoding="UTF-8" standalone="no"?>
<svg
   aria-hidden="true"
   data-prefix="fal"
   data-icon="angle-double-right"
   role="img"
   viewBox="0 0 512 512"
   class="svg-inline--fa fa-angle-double-right fa-w-10 fa-7x"
   version="1.1"
   id="svg4"
   sodipodi:docname="folder.svg"
   width="512"
   height="512"
   inkscape:version="1.1 (c4e8f9e, 2021-05-24)"
   xmlns:inkscape="http://www.inkscape.org/namespaces/inkscape"
   xmlns:sodipodi="http://sodipodi.sourceforge.net/DTD/sodipodi-0.dtd"
   xmlns="http://www.w3.org/2000/svg"
   xmlns:svg="http://www.w3.org/2000/svg">
  <defs
     id="defs8" />
  <sodipodi:namedview
     id="namedview6"
     pagecolor="#ffffff"
     bordercolor="#999999"
     borderopacity="1"
     inkscape:pageshadow="0"
     inkscape:pageopacity="0"
     inkscape:pagecheckerboard="0"
     showgrid="false"
     inkscape:zoom="1.4707031"
     inkscape:cx="159.78752"
     inkscape:cy="256"
     inkscape:current-layer="svg4" />
  <path
     fill="#4a4a4a"
     d="M 263.52127,265.20702 135.92282,390.85575 c -5.09094,5.09095 -13.3231,5.09095 -18.41404,0 l -7.69057,-7.69056 c -5.09094,-5.09095 -5.09094,-13.32311 0,-18.41405 L 220.6274,256 109.92653,147.24885 c -5.09094,-5.09094 -5.09094,-13.3231 0,-18.41404 l 7.69056,-7.69056 c 5.09094,-5.09095 13.3231,-5.09095 18.41404,0 l 127.59845,125.64873 c 4.98263,5.09094 4.98263,13.3231 -0.10831,18.41404 z M 402.16814,246.79298 274.56969,121.14425 c -5.09094,-5.09095 -13.32309,-5.09095 -18.41404,0 l -7.69056,7.69056 c -5.09095,5.09094 -5.09095,13.3231 0,18.41404 L 359.27427,256 248.5734,364.75114 c -5.09093,5.09094 -5.09093,13.3231 0,18.41405 l 7.69058,7.69056 c 5.09093,5.09095 13.32309,5.09095 18.41403,0 L 402.27647,265.20702 c 4.98261,-5.09094 4.98261,-13.3231 -0.10833,-18.41404 z"
     class=""
     id="path2"
     style="stroke-width:1.08318" />
</svg>
