<?xml version="1.0" encoding="iso-8859-1"?>
<!-- Uploaded to: SVG Repo, www.svgrepo.com, Generator: SVG Repo Mixer Tools -->
<!DOCTYPE svg PUBLIC "-//W3C//DTD SVG 1.1//EN" "http://www.w3.org/Graphics/SVG/1.1/DTD/svg11.dtd">
<svg fill="#000000" version="1.1" id="Capa_1" xmlns="http://www.w3.org/2000/svg"
     xmlns:xlink="http://www.w3.org/1999/xlink"
     width="800px" height="800px" viewBox="0 0 429.963 429.963"
     xml:space="preserve">
<g>
	<g>
		<polygon
                points="318.791,133.228 296.672,159.635 337.447,204.397 346.803,193.228 429.963,193.228 429.963,133.228 		"/>
        <path fill="#4a4a4a" d="M220.792,250.235h-35.594c-10.588-19.064-30.924-31.998-54.232-31.998c-34.186,0-61.998,27.812-61.998,61.998
			s27.813,61.998,61.998,61.998c23.309,0,43.645-12.936,54.232-31.998h63.605l23.848-28.475l-40.774-44.76L220.792,250.235z
			 M130.965,302.233c-12.13,0-21.998-9.869-21.998-21.998c0-12.131,9.868-21.998,21.998-21.998s21.998,9.867,21.998,21.998
			C152.963,292.364,143.095,302.233,130.965,302.233z"/>
        <path fill="#4a4a4a" d="M352.109,249.972L233.234,119.478H116.086c-10.627-18.926-30.883-31.748-54.088-31.748C27.812,87.729,0,115.542,0,149.728
			s27.813,61.998,61.998,61.998c23.411,0,43.829-13.047,54.377-32.248h90.353l118.897,130.52l104.338-0.102l-0.059-60
			L352.109,249.972z M61.999,171.726c-12.13,0-21.998-9.867-21.998-21.998c0-12.129,9.868-21.998,21.998-21.998
			s21.998,9.869,21.998,21.998C83.997,161.858,74.128,171.726,61.999,171.726z"/>
	</g>
</g>
</svg>